HIERARCHY
ROOT Hips
{
  OFFSET 52.1627 56.6694 -13.5332
  CHANNELS 6 Xposition Yposition Zposition Zrotation Xrotation Yrotation
  JOINT spine
  {
    OFFSET 0 7.96568 0.458067
    CHANNELS 3 Zrotation Xrotation Yrotation
    JOINT spine1
    {
      OFFSET 0 10.2431 0
      CHANNELS 3 Zrotation Xrotation Yrotation
      JOINT spine2
      {
        OFFSET 0 9.81475 0
        CHANNELS 3 Zrotation Xrotation Yrotation
        JOINT Neck
        {
          OFFSET 0 25.1986 1.20138
          CHANNELS 3 Zrotation Xrotation Yrotation
          JOINT Head
          {
            OFFSET 0 7.61315 0
            CHANNELS 3 Zrotation Xrotation Yrotation
            End Site
            {
              OFFSET 0 18.4281 -6.07733
            }
          }
        }
        JOINT RightShoulder
        {
          OFFSET -4.1327 10.5992 -0.575451
          CHANNELS 3 Zrotation Xrotation Yrotation
          JOINT RightArm
          {
            OFFSET 0 13.9018 0
            CHANNELS 3 Zrotation Xrotation Yrotation
            JOINT RightArmRoll
            {
              OFFSET 0 7.01789 0
              CHANNELS 3 Zrotation Xrotation Yrotation
              JOINT RightForeArm
              {
                OFFSET 0 20.4406 0
                CHANNELS 3 Zrotation Xrotation Yrotation
                JOINT RightForeArmRoll
                {
                  OFFSET 0 7.87516 0
                  CHANNELS 3 Zrotation Xrotation Yrotation
                  JOINT RightHand
                  {
                    OFFSET 0 15.8037 0
                    CHANNELS 3 Zrotation Xrotation Yrotation
                    End Site
                    {
                      OFFSET 0 0 0
                    }
                  }
                }
              }
            }
          }
        }
        JOINT LeftShoulder
        {
          OFFSET 4.1327 10.5992 -0.575451
          CHANNELS 3 Zrotation Xrotation Yrotation
          JOINT LeftArm
          {
            OFFSET 0 13.9018 0
            CHANNELS 3 Zrotation Xrotation Yrotation
            JOINT LeftArmRoll
            {
              OFFSET 0 7.01789 0
              CHANNELS 3 Zrotation Xrotation Yrotation
              JOINT LeftForeArm
              {
                OFFSET 0 20.4406 0
                CHANNELS 3 Zrotation Xrotation Yrotation
                JOINT LeftForeArmRoll
                {
                  OFFSET 0 7.87515 0
                  CHANNELS 3 Zrotation Xrotation Yrotation
                  JOINT LeftHand
                  {
                    OFFSET 0 15.8037 0
                    CHANNELS 3 Zrotation Xrotation Yrotation
                    End Site
                    {
                      OFFSET 0 0 0
                    }
                  }
                }
              }
            }
          }
        }
      }
    }
  }
  JOINT RightUpLeg
  {
    OFFSET -7.06048 -1.2947 -1.08609
    CHANNELS 3 Zrotation Xrotation Yrotation
    JOINT RightUpLegRoll
    {
      OFFSET 0 18.5308 0
      CHANNELS 3 Zrotation Xrotation Yrotation
      JOINT RightLeg
      {
        OFFSET 0 -22.9476 0
        CHANNELS 3 Zrotation Xrotation Yrotation
        JOINT RightLegRoll
        {
          OFFSET 0 23.0226 0
          CHANNELS 3 Zrotation Xrotation Yrotation
          JOINT RightFoot
          {
            OFFSET 0 19.1625 0
            CHANNELS 3 Zrotation Xrotation Yrotation
            JOINT RightToeBase
            {
              OFFSET 0 16.0188 0
              CHANNELS 3 Zrotation Xrotation Yrotation
              End Site
              {
                OFFSET 0.00678979 7.75782 -0.894207
              }
            }
          }
        }
      }
    }
  }
  JOINT LeftUpLeg
  {
    OFFSET 7.06048 -1.2947 -1.08609
    CHANNELS 3 Zrotation Xrotation Yrotation
    JOINT LeftUpLegRoll
    {
      OFFSET 0 18.5309 0
      CHANNELS 3 Zrotation Xrotation Yrotation
      JOINT LeftLeg
      {
        OFFSET 0 22.9475 0
        CHANNELS 3 Zrotation Xrotation Yrotation
        JOINT LeftLegRoll
        {
          OFFSET 0 23.2355 0
          CHANNELS 3 Zrotation Xrotation Yrotation
          JOINT LeftFoot
          {
            OFFSET 0 18.9496 0
            CHANNELS 3 Zrotation Xrotation Yrotation
            JOINT LeftToeBase
            {
              OFFSET 0 16.0188 0
              CHANNELS 3 Zrotation Xrotation Yrotation
              End Site
              {
                OFFSET -0.0304289 7.75782 -0.894206
              }
            }
          }
        }
      }
    }
  }
}
MOTION
Frames: 4
Frame Time: 0.00208333
52.7542 57.5786 -10.9151 4.23877 1.24819 6.69629 -0.724129 1.96093 -0.066575 -1.45308 7.92439 -0.01479 -1.45679 9.56917 0.00983074 9.22324 31.2818 -7.80641 -4.88778 0.6526 -4.41388 66.4608 -3.15693 -2.59648 107.748 33.0058 -16.6835 6.19107e-007 -2.7655e-006 -2.10328e-005 18.6249 52.2841 -11.6932 -4.46432e-006 -3.32593e-006 -3.00828 8.02975 -4.95138 0.697646 -62.6536 3.88041 -1.71201 -106.1 35.8224 20.1289 5.56597e-015 -3.18055e-015 3.18055e-015 -24.4741 50.1459 14.2446 1.66811e-005 -4.42324e-006 3.00693 -8.03006 -4.95139 -0.697653 101.031 78.7283 75.069 180 7.01576e-015 179.06 -144.052 80.6398 144.964 -2.68742e-006 -1.62836e-006 1.52931 -11.5954 63.9307 17.0709 8.13662 25.2346 -3.48507 165.976 85.3213 12.0387 4.54188e-006 -4.6773e-006 -1.26174 9.7517 -80.0775 11.0913 2.43306e-006 -7.34586e-006 -1.59579 12.1086 62.8999 -16.4657 -8.13649 25.2327 3.48774 
52.7439 57.5526 -10.9286 4.22892 1.0899 6.69673 -0.719414 1.94933 -0.0671906 -1.44465 7.90118 -0.016485 -1.44832 9.54597 0.00798796 9.111 31.2227 -7.74777 -4.82836 0.61941 -4.40275 66.4693 -3.13069 -2.58329 107.783 33.1115 -16.6263 6.19107e-007 -2.7655e-006 -2.10328e-005 18.6359 51.9503 -11.6136 -4.46432e-006 -3.32593e-006 -3.00828 8.02975 -4.95138 0.697646 -62.7611 3.86107 -1.68349 -106.141 35.943 20.0084 5.56597e-015 -3.18055e-015 3.18055e-015 -24.3985 49.7945 14.0846 1.66811e-005 -4.42324e-006 3.00693 -8.03006 -4.95139 -0.697653 101.726 78.7196 74.3832 180 7.01576e-015 179.056 -143.894 80.6582 144.816 -2.68742e-006 -1.62836e-006 1.53121 -11.6112 63.9371 17.073 8.13662 25.2346 -3.48507 166.415 85.2004 11.6141 4.54188e-006 -4.6773e-006 -1.26399 9.87496 -80.0978 11.1975 2.43306e-006 -7.34586e-006 -1.59655 12.1028 62.8886 -16.4609 -8.13649 25.2327 3.48774 
52.7433 57.5339 -10.9216 4.21901 0.932551 6.69678 -0.71485 1.93786 -0.0676298 -1.43635 7.87827 -0.0178812 -1.43996 9.52306 0.00644666 8.99854 31.1594 -7.68848 -4.76621 0.59262 -4.39065 66.4779 -3.10332 -2.56952 107.817 33.2139 -16.5646 6.19107e-007 -2.7655e-006 -2.10328e-005 18.6433 51.6212 -11.5337 -4.46432e-006 -3.32593e-006 -3.00828 8.02975 -4.95138 0.697646 -62.8672 3.84175 -1.65528 -106.184 36.0622 19.8888 -1.59028e-015 -1.59028e-015 3.18055e-015 -24.3217 49.4461 13.9263 1.66811e-005 -4.42324e-006 3.00693 -8.03006 -4.95139 -0.697653 102.416 78.7093 73.7025 180 7.01575e-015 179.053 -143.747 80.6751 144.678 -2.68742e-006 -1.62836e-006 1.53327 -11.6265 63.9441 17.0756 8.13662 25.2346 -3.48507 166.835 85.0796 11.2083 4.54188e-006 -4.6773e-006 -1.26622 9.99889 -80.1171 11.3045 2.43306e-006 -7.34586e-006 -1.59722 12.0955 62.8742 -16.4543 -8.13649 25.2327 3.48774 
52.7378 57.5182 -10.9402 4.209 0.776157 6.6964 -0.710468 1.92656 -0.067861 -1.42817 7.85568 -0.0189267 -1.43174 9.50047 0.00525912 8.88621 31.0918 -7.62861 -4.70128 0.57296 -4.3775 66.4866 -3.07483 -2.55517 107.85 33.3129 -16.4979 6.19107e-007 -2.7655e-006 -2.10328e-005 18.6467 51.2975 -11.4536 -4.46432e-006 -3.32593e-006 -3.00828 8.02975 -4.95138 0.697646 -62.9714 3.8224 -1.62742 -106.228 36.1797 19.7704 -1.66979e-014 0 -3.18055e-015 -24.2437 49.1011 13.7698 1.66811e-005 -4.42324e-006 3.00693 -8.03006 -4.95139 -0.697653 103.102 78.6973 73.027 180 7.01574e-015 179.049 -143.614 80.6905 144.553 -2.68742e-006 -1.62836e-006 1.53552 -11.6415 63.9519 17.0785 8.13662 25.2346 -3.48507 167.238 84.9589 10.8188 4.54188e-006 -4.6773e-006 -1.26844 10.1236 -80.1355 11.4123 2.43306e-006 -7.34586e-006 -1.59778 12.0864 62.8563 -16.446 -8.13649 25.2327 3.48774 
